<svg xmlns="http://www.w3.org/2000/svg" xmlns:xlink="http://www.w3.org/1999/xlink" width="256" height="256" xml:space="preserve"><switch><g><path fill="#D8D8D8" d="m133.93 150.122 20.43-17.416 38.308 44.94-20.43 17.415z"/><linearGradient id="a" gradientUnits="userSpaceOnUse" x1="198.374" y1="146.379" x2="198.374" y2="250.288" gradientTransform="rotate(-.81 166.544 156.24)"><stop offset="0" style="stop-color:#f9aa2d"/><stop offset="1" style="stop-color:#e09115"/></linearGradient><path fill="url(#a)" d="M234.809 251.566c-7.651 6.595-19.307 5.732-25.902-1.919l-51.951-60.261c-6.597-7.651-5.732-19.309 1.919-25.905l4.575-3.944c7.649-6.595 19.308-5.73 25.9 1.921l51.951 60.262c6.594 7.651 5.732 19.308-1.921 25.902l-4.571 3.944z"/><path fill="#2C2C2C" d="M245.648 232.11c-.298 4.772-2.424 9.428-6.31 12.779l-4.572 3.943c-7.651 6.593-19.306 5.733-25.902-1.92l-51.951-60.26c-2.607-3.024-4.03-6.677-4.348-10.392-.288 4.624 1.144 9.36 4.39 13.125l51.951 60.261c6.596 7.651 18.251 8.514 25.902 1.919l4.571-3.944c4.629-3.987 6.755-9.825 6.269-15.511z" opacity=".2"/><defs><path id="b" transform="rotate(-40.445 163.307 163.891)" d="M149.883 134.361h26.847v59.053h-26.847z"/></defs><clipPath id="c"><use xlink:href="#b" overflow="visible"/></clipPath><g opacity=".5" clip-path="url(#c)"><path opacity=".1" fill="#2C2C2C" d="M111.417 4.316C63.521-3.073 18.693 29.768 11.306 77.67c-7.392 47.896 25.448 92.718 73.353 100.112 47.898 7.384 92.725-25.455 100.117-73.351 7.386-47.9-25.456-92.726-73.359-100.115zM89.696 145.108c-29.856-4.604-50.326-32.542-45.721-62.399 4.605-29.856 32.549-50.326 62.404-45.72 29.863 4.607 50.329 32.546 45.718 62.399-4.599 29.857-32.543 50.331-62.401 45.72z"/></g><g><linearGradient id="d" gradientUnits="userSpaceOnUse" x1="98.04" y1="13.222" x2="98.04" y2="154.956"><stop offset="0" style="stop-color:#54bdf1"/><stop offset="1" style="stop-color:#3aa5d9"/></linearGradient><path fill="url(#d)" d="M111.417 1.038C63.521-6.351 18.693 26.489 11.306 74.392c-7.392 47.896 25.448 92.718 73.353 100.112 47.898 7.384 92.725-25.455 100.117-73.351 7.386-47.9-25.456-92.726-73.359-100.115zM89.696 141.83c-29.856-4.604-50.326-32.542-45.721-62.399 4.605-29.856 32.549-50.326 62.404-45.719 29.863 4.606 50.329 32.545 45.718 62.398-4.599 29.857-32.543 50.33-62.401 45.72z"/></g><g opacity=".2"><path fill="#2C2C2C" d="M43.975 79.431c4.605-29.856 32.549-50.326 62.404-45.719 26.17 4.037 45.12 25.992 46.306 51.451 1.198-27.499-18.465-52.074-46.306-56.369-29.856-4.606-57.799 15.863-62.404 45.72a54.904 54.904 0 0 0-.585 10.934c.086-1.993.274-4 .585-6.017zm141.777 5.758c-.103 3.654-.405 7.339-.977 11.046-7.393 47.896-52.219 80.735-100.117 73.351-42.522-6.563-73.15-42.622-74.33-84.139-1.209 43.557 30.136 82.236 74.33 89.057 47.898 7.384 92.725-25.455 100.117-73.351a88.309 88.309 0 0 0 .977-15.964z"/></g><path opacity=".2" fill="#2C2C2C" d="M93.649 131.78c-27.644-4.264-46.595-30.131-42.332-57.772.675-4.363 1.934-8.477 3.609-12.348a50.391 50.391 0 0 0-7.042 19.02c-4.266 27.644 14.687 53.515 42.333 57.782 23.289 3.589 45.252-9.319 54.175-29.987-10.403 16.698-30.064 26.501-50.743 23.305z"/><g opacity=".5"><path fill="#FAFAFA" d="M104.718 44.212C80.181 40.425 57.22 57.248 53.436 81.777a46.035 46.035 0 0 0-.474 4.738c8.74-16.721 27.737-26.822 47.819-23.723 21.837 3.368 37.748 21.222 39.042 41.958a45.237 45.237 0 0 0 2.463-9.262c3.787-24.531-13.033-47.488-37.568-51.276z"/></g></g></switch></svg>